<?xml version="1.0" encoding="UTF-8"?>
<svg width="500px" height="500px" viewBox="0 0 500 500" version="1.1" xmlns="http://www.w3.org/2000/svg" xmlns:xlink="http://www.w3.org/1999/xlink">
    <!-- Generator: Sketch 61.1 (89650) - https://sketch.com -->
    <title>Logo</title>
    <desc>Created with Sketch.</desc>
    <g id="Page-1" stroke="none" stroke-width="1" fill="none" fill-rule="evenodd">
        <g id="Logo" transform="translate(-250.000000, -250.000000)" fill="#212121">
            <path d="M429.5,291 C519.246272,291 592,363.753728 592,453.5 C592,543.246272 519.246272,616 429.5,616 C339.753728,616 267,543.246272 267,453.5 C267,363.753728 339.753728,291 429.5,291 Z M430,311 C383.055796,311 345,374.799423 345,453.5 C345,532.200577 383.055796,596 430,596 C476.944204,596 515,532.200577 515,453.5 C515,374.799423 476.944204,311 430,311 Z" id="Combined-Shape"></path>
            <path d="M678,531 C708.375661,531 733,555.624339 733,586 C733,601.184293 726.846783,614.931425 716.897828,624.883917 L717,624.842603 C642,707.417337 567,729.939272 492,692.408408 C417,654.877544 342,651.121041 267,681.1389 C342,598.577831 417,576.062729 492,613.593594 C550.299333,642.767252 608.598667,651.529188 666.898,639.879401 C641.844231,634.743725 623,612.572515 623,586 C623,555.624339 647.624339,531 678,531 Z" id="Combined-Shape"></path>
        </g>
    </g>
</svg>