<?xml version="1.0" encoding="UTF-8"?>
<svg width="500px" height="500px" viewBox="0 0 500 500" version="1.1" xmlns="http://www.w3.org/2000/svg" xmlns:xlink="http://www.w3.org/1999/xlink">
    <!-- Generator: Sketch 61.1 (89650) - https://sketch.com -->
    <title>Logo</title>
    <desc>Created with Sketch.</desc>
    <g id="Page-1" stroke="none" stroke-width="1" fill="none" fill-rule="evenodd">
        <g id="Logo" transform="translate(-250.000000, -250.000000)" fill="#212121">
            <path d="M421.5,297 C511.246272,297 584,369.753728 584,459.5 C584,549.246272 511.246272,622 421.5,622 C331.753728,622 259,549.246272 259,459.5 C259,369.753728 331.753728,297 421.5,297 Z M422,317 C375.055796,317 337,380.799423 337,459.5 C337,538.200577 375.055796,602 422,602 C468.944204,602 507,538.200577 507,459.5 C507,380.799423 468.944204,317 422,317 Z" id="Combined-Shape"></path>
            <path d="M690,542 C717.614237,542 740,564.385763 740,592 C740,605.971189 734.269764,618.604009 725.03132,627.676433 C658.686813,700.148919 592.343407,719.797592 526,686.625889 C459.333333,653.292556 392.666667,649.956188 326,676.616786 C392.666667,603.289521 459.333333,583.292556 526,616.625889 C576.734,641.992889 627.468,649.984045 678.202,640.599357 C656.281355,635.297446 640,615.55008 640,592 C640,564.385763 662.385763,542 690,542 Z" id="Combined-Shape"></path>
        </g>
    </g>
</svg>