<?xml version="1.0" encoding="UTF-8"?>
<svg width="256px" height="256px" viewBox="0 0 256 256" version="1.1" xmlns="http://www.w3.org/2000/svg" xmlns:xlink="http://www.w3.org/1999/xlink">
    <!-- Generator: Sketch 61.1 (89650) - https://sketch.com -->
    <title>medium-seeklogo.com</title>
    <desc>Created with Sketch.</desc>
    <g id="Page-1" stroke="none" stroke-width="1" fill="none" fill-rule="evenodd">
        <g id="medium-seeklogo.com" fill="#12100E" fill-rule="nonzero">
            <path d="M256,0 L256,256 L0,256 L0,0 L256,0 Z M92.7248438,57.7641026 L42.8652446,57.7641026 L42.8652446,60.6536969 L58.9230865,79.9979257 C60.4994954,81.4188058 61.3045665,83.5054371 61.0908952,85.6165814 L61.0908952,85.6165814 L61.0908952,161.628966 C61.5586577,164.371016 60.6942682,167.172038 58.7625081,169.174019 L58.7625081,169.174019 L40.6974359,191.086776 L40.6974359,193.97637 L91.9219516,193.97637 L91.9219516,191.086776 L73.8568795,169.174019 C71.9109513,167.175352 70.9930375,164.392788 71.3679139,161.628966 L71.3679139,161.628966 L71.3679139,95.8906948 L116.329871,193.97637 L121.54867,193.97637 L160.16778,95.8906948 L160.167159,174.523159 C160.159704,176.224648 160.062786,176.663501 158.802864,177.923068 L158.802864,177.923068 L144.91283,191.407842 L144.91283,194.297436 L212.355766,194.297436 L212.355766,191.407842 L198.947468,178.244134 C197.763839,177.341902 197.176698,175.859021 197.421974,174.391342 L197.421974,174.391342 L197.421974,77.670197 C197.176698,76.2025173 197.763839,74.719636 198.947468,73.8174045 L198.947468,73.8174045 L212.676923,60.6536969 L212.676923,57.7641026 L165.145712,57.7641026 L131.263664,142.284737 L92.7248438,57.7641026 Z" id="Combined-Shape"></path>
        </g>
    </g>
</svg>